PathFileType	4	(X/Y/Z)	/Users/itak/Documents/Research/Walk-IL/dataset/trc/00283_00010.trc
DataRate	CameraRate	NumFrames	NumMarkers	Units	OrigDataRate	OrigDataStartFrame	OrigNumFrames
100.000000	100.000000	4	54	mm	100.000000	160	642
Frame#	Time	RPSI			LPSI			L3			STRN			T10			C7			CLAV			RBAK			LBAK			LSHO			LUPA			LAEL			LAOL			LWTS			LWPS			LFRA			LIFD			LHPS			LHTS			RSHO			RUPA			RAEL			RAOL			RWTS			RWPS			RFRA			RIFD			RHTS			RHPS			RBHD			LFHD			RFHD			LBHD			LHIP			RASI			LASI			LKNE			LTHI			LANK			LTIP			LTOE			LMT1			LMT5			LHEE			RKNE			RANK			RTIP			RTOE			RMT1			RMT5			RHEE			RHIP			RTHI			*53			
		X1	Y1	Z1	X2	Y2	Z2	X3	Y3	Z3	X4	Y4	Z4	X5	Y5	Z5	X6	Y6	Z6	X7	Y7	Z7	X8	Y8	Z8	X9	Y9	Z9	X10	Y10	Z10	X11	Y11	Z11	X12	Y12	Z12	X13	Y13	Z13	X14	Y14	Z14	X15	Y15	Z15	X16	Y16	Z16	X17	Y17	Z17	X18	Y18	Z18	X19	Y19	Z19	X20	Y20	Z20	X21	Y21	Z21	X22	Y22	Z22	X23	Y23	Z23	X24	Y24	Z24	X25	Y25	Z25	X26	Y26	Z26	X27	Y27	Z27	X28	Y28	Z28	X29	Y29	Z29	X30	Y30	Z30	X31	Y31	Z31	X32	Y32	Z32	X33	Y33	Z33	X34	Y34	Z34	X35	Y35	Z35	X36	Y36	Z36	X37	Y37	Z37	X38	Y38	Z38	X39	Y39	Z39	X40	Y40	Z40	X41	Y41	Z41	X42	Y42	Z42	X43	Y43	Z43	X44	Y44	Z44	X45	Y45	Z45	X46	Y46	Z46	X47	Y47	Z47	X48	Y48	Z48	X49	Y49	Z49	X50	Y50	Z50	X51	Y51	Z51	X52	Y52	Z52	X53	Y53	Z53	X54	Y54	Z54	

161	1.6	1107.781616210938	989.9566650390625	880.6800537109375	956.400634765625	954.7596435546875	801.1915283203125	1041.35595703125	1042.834716796875	827.163330078125	1123.876831054688	1215.36669921875	590.33740234375	1039.034545898438	1159.095825195312	840.4313354492188	1036.806640625	1402.056640625	783.996826171875	1095.637939453125	1315.488647460938	645.865234375	1093.014770507812	1269.316162109375	864.2657470703125	934.2097778320312	1363.645263671875	767.9448852539062	914.559814453125	1365.643310546875	665.4537963867188	825.4267578125	1259.435424804688	685.6117553710938	785.75146484375	1062.22509765625	701.3986206054688	834.4342651367188	1048.237915039062	772.6194458007812	815.1474609375	830.8268432617188	643.1685791015625	747.6649780273438	829.2158813476562	669.4242553710938	764.5167236328125	959.0211791992188	693.2505493164062	787.7866821289062	645.131103515625	647.6404418945312	738.1053466796875	742.060302734375	668.5762329101562	783.8807373046875	735.3414306640625	621.0877685546875	1207.692138671875	1383.930786132812	775.07568359375	1271.710083007812	1330.863403320312	804.24755859375	1378.649169921875	1081.1005859375	795.1238403320312	1288.95458984375	1047.370361328125	785.1945190429688	1440.484985351562	905.0087280273438	627.4564208984375	1485.102416992188	893.189208984375	700.4443359375	1416.778930664062	1026.524169921875	765.7837524414062	1508.830200195312	739.0186157226562	576.54150390625	1509.29736328125	814.7393798828125	583.3651123046875	1530.811767578125	803.4996948242188	649.7916870117188	1127.830688476562	1570.458740234375	747.194091796875	1029.44287109375	1570.593383789062	558.6878662109375	1121.66650390625	1574.131469726562	570.4337158203125	982.7432861328125	1555.33740234375	728.44189453125	908.7025146484375	900.9475708007812	697.2978515625	1244.883422851562	940.1774291992188	704.0910034179688	1015.773681640625	921.375732421875	599.9884033203125	1064.872436523438	486.6611022949219	508.3381652832031	1003.334594726562	609.646484375	557.095703125	1115.434936523438	38.30337905883789	553.59228515625	1079.836791992188	255.3253631591797	527.788818359375	1230.126953125	65.7305908203125	381.2904663085938	1248.993530273438	41.22986602783203	454.2221069335938	1139.879638671875	47.57864379882812	434.8662109375	1158.291381835938	30.43615913391113	614.17333984375	1221.694580078125	473.1803588867188	869.8659057617188	1149.126220703125	37.9626350402832	980.3931274414062	1208.475952148438	348.430908203125	877.6658935546875	1180.703491210938	32.81303024291992	780.889892578125	1121.262329101562	32.9839973449707	817.47216796875	1209.619018554688	25.28962326049805	895.5956420898438	1082.680908203125	38.81008911132812	1009.005310058594	1249.733520507812	947.8253784179688	843.548095703125	1271.465942382812	731.8574829101562	817.1622924804688	nan	nan	nan	
162	1.61	1112.126342773438	989.2432250976562	872.173095703125	960.228271484375	953.4300537109375	793.3406982421875	1045.78759765625	1041.34521484375	819.0095825195312	1125.817504882812	1213.60009765625	581.9207763671875	1043.706787109375	1157.074340820312	832.490966796875	1040.08349609375	1400.100341796875	776.5260009765625	1097.767456054688	1313.780395507812	637.5748901367188	1097.594970703125	1267.452392578125	855.9417724609375	937.4544677734375	1361.307739257812	761.5160522460938	916.6939086914062	1363.24267578125	659.2683715820312	828.1307373046875	1256.869384765625	680.9667358398438	789.4609375	1059.812622070312	698.8621826171875	839.7147216796875	1046.146118164062	768.9729614257812	817.4181518554688	827.8604125976562	641.7685546875	750.53759765625	826.5130004882812	669.5155639648438	767.93603515625	956.5167846679688	691.8634033203125	790.1940307617188	642.1840209960938	648.43115234375	740.9575805664062	739.328125	669.7090454101562	785.6815795898438	732.1846923828125	621.2122802734375	1210.85009765625	1382.596069335938	765.7029418945312	1275.352905273438	1329.635986328125	794.0241088867188	1383.067504882812	1080.291870117188	782.17724609375	1293.46533203125	1046.293701171875	773.047119140625	1443.861694335938	908.3555297851562	610.322509765625	1489.399780273438	894.9277954101562	682.546875	1421.16943359375	1026.384155273438	751.6980590820312	1512.6826171875	744.1519775390625	554.4161987304688	1512.746704101562	819.6687622070312	563.205810546875	1535.049560546875	806.8373413085938	629.09375	1130.306274414062	1568.688110351562	738.860595703125	1029.37841796875	1569.072265625	551.69189453125	1121.750366210938	1572.854614257812	562.1963500976562	984.9278564453125	1553.259155273438	722.0248413085938	912.112060546875	899.3489379882812	690.2506713867188	1248.043212890625	938.098876953125	695.1753540039062	1018.40576171875	919.181640625	591.9749145507812	1065.901733398438	483.4861450195312	503.9576416015625	1004.004638671875	606.345947265625	552.4127807617188	1127.23291015625	34.94560241699219	524.0614624023438	1085.697265625	252.4731597900391	511.9503784179688	1234.821044921875	73.98934936523438	349.4918212890625	1256.85205078125	46.52901840209961	420.3543090820312	1147.070190429688	50.76721954345703	405.1941528320312	1172.291748046875	25.14278221130371	582.744873046875	1222.609130859375	472.4743041992188	866.6187133789062	1149.117065429688	38.35472869873047	980.2449951171875	1209.057739257812	347.9965515136719	875.6595458984375	1180.676635742188	32.85287094116211	780.9300537109375	1121.159423828125	32.97605133056641	817.4599609375	1209.650024414062	25.35232925415039	895.5345458984375	1082.668090820312	39.2896728515625	1009.009216308594	1253.723510742188	946.35498046875	834.4689331054688	1274.011840820312	730.1795043945312	810.4544067382812	nan	nan	nan	
163	1.62	1116.336181640625	988.4431762695312	863.5887451171875	963.94384765625	952.0220336914062	785.2993774414062	1050.059204101562	1039.71337890625	810.6580200195312	1127.729614257812	1211.709106445312	573.3899536132812	1048.20703125	1154.926025390625	824.3740234375	1043.193481445312	1398.009765625	768.9034423828125	1099.828247070312	1311.95654296875	629.1539306640625	1101.97900390625	1265.464111328125	847.4796142578125	940.568359375	1358.829711914062	754.88134765625	918.7467651367188	1360.669555664062	652.8582763671875	830.8208618164062	1254.067749023438	675.9774780273438	793.366943359375	1057.20654296875	696.0098876953125	845.0592651367188	1043.859008789062	764.99755859375	819.9412231445312	824.6404418945312	640.2765502929688	753.650634765625	823.5614624023438	669.482666015625	771.537353515625	953.787109375	690.2355346679688	793.0614624023438	638.9788818359375	649.3132934570312	744.1885375976562	736.343994140625	670.828125	787.8394165039062	728.75	621.354736328125	1213.84228515625	1381.141479492188	756.2568969726562	1278.812133789062	1328.273681640625	783.7137451171875	1387.152954101562	1079.331665039062	769.3506469726562	1297.683837890625	1045.121215820312	761.1532592773438	1446.667724609375	911.6026000976562	593.4313354492188	1493.173095703125	896.5576171875	664.8088989257812	1425.208374023438	1026.100341796875	737.7627563476562	1515.664794921875	749.2701416015625	532.4727783203125	1515.459838867188	824.5288696289062	543.2579956054688	1538.5732421875	810.0776977539062	608.5275268554688	1132.602416992188	1566.783081054688	730.5294189453125	1029.28173828125	1567.473388671875	544.6550903320312	1121.771850585938	1571.520385742188	553.9934692382812	986.9686279296875	1551.067504882812	715.5039672851562	915.4254760742188	897.5353393554688	682.9290161132812	1251.145629882812	935.9436645507812	686.2221069335938	1021.040161132812	916.7821044921875	583.7627563476562	1066.94775390625	479.99072265625	499.5626525878906	1004.701904296875	602.7034912109375	547.791015625	1138.026000976562	32.59634017944336	496.0534362792969	1091.098754882812	249.9132843017578	496.9842224121094	1237.790649414062	82.46910858154297	319.5520629882812	1263.1298828125	52.49974060058594	388.2101745605469	1152.859375	54.4318962097168	377.4011535644531	1185.362670898438	21.30285263061523	552.6851806640625	1223.648559570312	471.7088012695312	863.0582885742188	1149.139770507812	38.7955436706543	980.106689453125	1209.747314453125	347.4849853515625	873.3458862304688	1180.643432617188	32.87746810913086	780.9684448242188	1121.072021484375	32.96302795410156	817.4526977539062	1209.690795898438	25.41689300537109	895.4613647460938	1082.685180664062	39.86836242675781	1009.03759765625	1257.571044921875	944.7675170898438	825.3191528320312	1276.537475585938	728.4501953125	803.6618041992188	nan	nan	nan	
164	1.63	1120.364868164062	987.5336303710938	854.9219970703125	967.5390625	950.55712890625	777.0858154296875	1054.133911132812	1037.948852539062	802.09765625	1129.6064453125	1209.707641601562	564.746826171875	1052.509033203125	1152.669677734375	816.0850830078125	1046.132446289062	1395.806762695312	761.1244506835938	1101.810424804688	1310.0322265625	620.59619140625	1106.1533203125	1263.366577148438	838.8939208984375	943.5451049804688	1356.23486328125	748.0479125976562	920.704345703125	1357.938110351562	646.2354125976562	833.4860229492188	1251.041870117188	670.6705322265625	797.4393920898438	1054.405395507812	692.8072509765625	850.4444580078125	1041.380126953125	760.6770629882812	822.7109985351562	821.1874389648438	638.669921875	756.9906616210938	820.3818969726562	669.2906494140625	775.3097534179688	950.84375	688.3414306640625	796.3684692382812	635.53955078125	650.2681884765625	747.7744140625	733.1348876953125	671.8888549804688	790.343994140625	725.0546264648438	621.4931030273438	1216.667114257812	1379.578735351562	746.7335205078125	1282.082885742188	1326.78564453125	773.3116455078125	1390.924926757812	1078.238159179688	756.6397705078125	1301.63818359375	1043.840576171875	749.5443725585938	1448.922607421875	914.7174682617188	576.8167724609375	1496.446411132812	898.0844116210938	647.2537231445312	1428.914428710938	1025.690063476562	723.9752197265625	1517.784545898438	754.3350830078125	510.7882385253906	1517.438720703125	829.28466796875	523.5692138671875	1541.406860351562	813.214111328125	588.1371459960938	1134.7158203125	1564.765258789062	722.1871948242188	1029.149536132812	1565.803955078125	537.5634155273438	1121.733520507812	1570.139526367188	545.8167114257812	988.869140625	1548.779541015625	708.8739013671875	918.6334228515625	895.5277099609375	675.29443359375	1254.217041015625	933.739501953125	677.224365234375	1023.697326660156	914.2074584960938	575.3653564453125	1068.034912109375	476.2925415039062	494.9708862304688	1005.493530273438	598.8206787109375	543.0835571289062	1147.721557617188	31.06897926330566	470.0311279296875	1096.0322265625	247.5913391113281	483.0162048339844	1239.137939453125	90.67623138427734	291.8499145507812	1267.846557617188	58.6954345703125	358.253173828125	1157.284545898438	58.20455932617188	351.8799438476562	1197.348999023438	18.73022079467773	524.513916015625	1224.857666015625	470.8929443359375	859.150390625	1149.209594726562	39.29267501831055	979.9872436523438	1210.570434570312	346.8934020996094	870.685302734375	1180.60546875	32.88642883300781	781.0032348632812	1121.005981445312	32.94808578491211	817.451171875	1209.740478515625	25.48472595214844	895.37109375	1082.740966796875	40.57807540893555	1009.087707519531	1261.25244140625	943.0838012695312	816.1256103515625	1279.057983398438	726.691650390625	796.7766723632812	nan	nan	nan	
